<?xml version="1.0" encoding="UTF-8" standalone="no"?>
<!-- Created with Inkscape (http://www.inkscape.org/) -->

<svg
   xmlns:dc="http://purl.org/dc/elements/1.1/"
   xmlns:cc="http://creativecommons.org/ns#"
   xmlns:rdf="http://www.w3.org/1999/02/22-rdf-syntax-ns#"
   xmlns:svg="http://www.w3.org/2000/svg"
   xmlns="http://www.w3.org/2000/svg"
   xmlns:sodipodi="http://sodipodi.sourceforge.net/DTD/sodipodi-0.dtd"
   xmlns:inkscape="http://www.inkscape.org/namespaces/inkscape"
   width="2160"
   height="1080"
   id="svg2"
   version="1.1"
   inkscape:version="0.48.3.1 r9886"
   sodipodi:docname="drawing_0.125.svg">
  <defs
     id="defs4" />
  <sodipodi:namedview
     id="base"
     pagecolor="#ffffff"
     bordercolor="#666666"
     borderopacity="1.0"
     inkscape:pageopacity="0.0"
     inkscape:pageshadow="2"
     inkscape:zoom="1.4142136"
     inkscape:cx="1486.3858"
     inkscape:cy="259.40739"
     inkscape:document-units="in"
     inkscape:current-layer="layer3"
     showgrid="true"
     inkscape:window-width="1366"
     inkscape:window-height="768"
     inkscape:window-x="0"
     inkscape:window-y="0"
     inkscape:window-maximized="0"
     units="in"
     gridtolerance="40">
    <inkscape:grid
       type="xygrid"
       id="grid2985"
       empspacing="4"
       visible="true"
       enabled="true"
       snapvisiblegridlinesonly="true"
       units="in"
       spacingx="0.015625in"
       spacingy="0.015625in" />
  </sodipodi:namedview>
  <metadata
     id="metadata7">
    <rdf:RDF>
      <cc:Work
         rdf:about="">
        <dc:format>image/svg+xml</dc:format>
        <dc:type
           rdf:resource="http://purl.org/dc/dcmitype/StillImage" />
        <dc:title></dc:title>
      </cc:Work>
    </rdf:RDF>
  </metadata>
  <g
     inkscape:label="outline"
     inkscape:groupmode="layer"
     id="layer1"
     transform="translate(0,27.638)"
     style="opacity:0.5;display:none"
     sodipodi:insensitive="true">
    <rect
       style="fill:none;stroke:#ff0000;stroke-width:1.5;stroke-miterlimit:4;stroke-opacity:1;stroke-dasharray:none"
       id="rect3083"
       width="270"
       height="270"
       x="-630"
       y="782.36194"
       rx="22.5"
       ry="22.5" />
    <rect
       style="fill:none;stroke:#ff0000;stroke-width:1.5;stroke-miterlimit:4;stroke-opacity:1;stroke-dasharray:none"
       id="rect3220"
       width="270"
       height="540"
       x="-360"
       y="197.362"
       rx="22.5"
       ry="22.5" />
    <rect
       style="fill:none;stroke:#ff0000;stroke-width:1.5;stroke-miterlimit:4;stroke-opacity:1;stroke-dasharray:none"
       id="rect3227"
       width="225"
       height="423"
       x="-360"
       y="253.612"
       rx="0"
       ry="0" />
    <rect
       style="fill:none;stroke:#ff0000;stroke-width:1.5;stroke-miterlimit:4;stroke-opacity:1;stroke-dasharray:none"
       id="rect3083-5"
       width="270"
       height="270"
       x="-630"
       y="557.362"
       rx="0"
       ry="0" />
    <rect
       style="fill:none;stroke:#ff0000;stroke-width:1.5;stroke-miterlimit:4;stroke-opacity:1;stroke-dasharray:none"
       id="rect3083-5-8"
       width="270"
       height="270"
       x="-630"
       y="332.36194"
       rx="0"
       ry="0" />
    <rect
       style="fill:none;stroke:#ff0000;stroke-width:1.5;stroke-miterlimit:4;stroke-opacity:1;stroke-dasharray:none"
       id="rect3083-5-89"
       width="270"
       height="270"
       x="-630"
       y="107.362"
       rx="0"
       ry="0" />
    <rect
       style="fill:none;stroke:#ff0000;stroke-width:1.5;stroke-miterlimit:4;stroke-opacity:1;stroke-dasharray:none"
       id="rect3083-5-6"
       width="270"
       height="270"
       x="-630"
       y="-117.638"
       rx="22.5"
       ry="22.5" />
    <rect
       style="fill:none;stroke:#ff0000;stroke-width:1.52999997;stroke-miterlimit:4;stroke-opacity:1;stroke-dasharray:none;display:inline"
       id="rect4531"
       width="202.5"
       height="90"
       x="-315"
       y="849.862"
       rx="0"
       ry="0" />
    <rect
       style="fill:none;stroke:#ff0000;stroke-width:1.52999997;stroke-miterlimit:4;stroke-opacity:1;stroke-dasharray:none;display:inline"
       id="rect4693"
       width="1102.5"
       height="90"
       x="45"
       y="-140.138" />
  </g>
  <g
     inkscape:groupmode="layer"
     id="layer3"
     inkscape:label="laser"
     style="display:inline">
    <rect
       transform="matrix(0,-1,1,0,0,0)"
       style="fill:none;stroke:#000000;stroke-width:0.27;stroke-miterlimit:4;stroke-opacity:1;stroke-dasharray:none"
       id="rect3157"
       width="180"
       height="180"
       x="-905.54688"
       y="967.10938"
       rx="18"
       ry="18" />
    <rect
       transform="matrix(0,-1,1,0,0,0)"
       style="fill:none;stroke:#000000;stroke-width:0.27;stroke-miterlimit:4;stroke-opacity:1;stroke-dasharray:none"
       id="rect3225-2"
       width="11.25"
       height="67.5"
       x="-933.67188"
       y="1023.3594"
       rx="2.4784607e-05"
       ry="0" />
    <rect
       transform="matrix(0,-1,1,0,0,0)"
       style="fill:none;stroke:#000000;stroke-width:0.27;stroke-miterlimit:4;stroke-opacity:1;stroke-dasharray:none"
       id="rect3225-2-6"
       width="11.25"
       height="67.5"
       x="-708.67188"
       y="1023.3594"
       rx="2.4784607e-05"
       ry="0" />
    <rect
       style="fill:none;stroke:#000000;stroke-width:0.27;stroke-miterlimit:4;stroke-opacity:1;stroke-dasharray:none"
       id="rect3225-2-1"
       width="11.25"
       height="67.5"
       x="-1175.2344"
       y="-849.29688"
       rx="2.4784607e-05"
       ry="0"
       transform="scale(-1,-1)" />
    <rect
       transform="matrix(0,-1,1,0,0,0)"
       style="fill:none;stroke:#000000;stroke-width:0.27;stroke-miterlimit:4;stroke-opacity:1;stroke-dasharray:none"
       id="rect3157-5"
       width="180"
       height="180"
       x="-905.54688"
       y="742.10944"
       rx="18"
       ry="18" />
    <rect
       transform="matrix(0,-1,1,0,0,0)"
       style="fill:none;stroke:#000000;stroke-width:0.27;stroke-miterlimit:4;stroke-opacity:1;stroke-dasharray:none"
       id="rect3225-2-12"
       width="11.25"
       height="67.5"
       x="-933.67188"
       y="798.35938"
       rx="2.4784607e-05"
       ry="0" />
    <rect
       transform="matrix(0,-1,1,0,0,0)"
       style="fill:none;stroke:#000000;stroke-width:0.27;stroke-miterlimit:4;stroke-opacity:1;stroke-dasharray:none"
       id="rect3225-2-6-1"
       width="11.25"
       height="67.5"
       x="-708.67188"
       y="798.35938"
       rx="2.4784607e-05"
       ry="0" />
    <rect
       style="fill:none;stroke:#000000;stroke-width:0.27;stroke-miterlimit:4;stroke-opacity:1;stroke-dasharray:none"
       id="rect3225-2-1-2"
       width="11.25"
       height="67.5"
       x="-950.23438"
       y="-849.29688"
       rx="2.4784607e-05"
       ry="0"
       transform="scale(-1,-1)" />
    <rect
       transform="matrix(0,-1,1,0,0,0)"
       style="fill:none;stroke:#000000;stroke-width:0.27;stroke-miterlimit:4;stroke-opacity:1;stroke-dasharray:none"
       id="rect3157-5-3"
       width="180"
       height="180"
       x="-905.54688"
       y="517.10938"
       rx="18"
       ry="18" />
    <rect
       transform="matrix(0,-1,1,0,0,0)"
       style="fill:none;stroke:#000000;stroke-width:0.27;stroke-miterlimit:4;stroke-opacity:1;stroke-dasharray:none"
       id="rect3225-2-12-7"
       width="11.25"
       height="67.5"
       x="-933.67188"
       y="573.35938"
       rx="2.4784607e-05"
       ry="0" />
    <rect
       transform="matrix(0,-1,1,0,0,0)"
       style="fill:none;stroke:#000000;stroke-width:0.27;stroke-miterlimit:4;stroke-opacity:1;stroke-dasharray:none"
       id="rect3225-2-6-1-1"
       width="11.25"
       height="67.5"
       x="-708.67188"
       y="573.35938"
       rx="2.4784607e-05"
       ry="0" />
    <rect
       style="fill:none;stroke:#000000;stroke-width:0.27;stroke-miterlimit:4;stroke-opacity:1;stroke-dasharray:none"
       id="rect3225-2-1-2-1"
       width="11.25"
       height="67.5"
       x="-725.23438"
       y="-849.29688"
       rx="2.4784607e-05"
       ry="0"
       transform="scale(-1,-1)" />
    <rect
       transform="matrix(0,-1,1,0,0,0)"
       style="fill:none;stroke:#000000;stroke-width:0.27;stroke-miterlimit:4;stroke-opacity:1;stroke-dasharray:none"
       id="rect3157-5-7"
       width="180"
       height="180"
       x="-905.54688"
       y="292.10944"
       rx="18"
       ry="18" />
    <rect
       transform="matrix(0,-1,1,0,0,0)"
       style="fill:none;stroke:#000000;stroke-width:0.27;stroke-miterlimit:4;stroke-opacity:1;stroke-dasharray:none"
       id="rect3225-2-12-5"
       width="11.25"
       height="67.5"
       x="-933.67188"
       y="348.35938"
       rx="2.4784607e-05"
       ry="0" />
    <rect
       transform="matrix(0,-1,1,0,0,0)"
       style="fill:none;stroke:#000000;stroke-width:0.27;stroke-miterlimit:4;stroke-opacity:1;stroke-dasharray:none"
       id="rect3225-2-6-1-4"
       width="11.25"
       height="67.5"
       x="-708.67188"
       y="348.35938"
       rx="2.4784607e-05"
       ry="0" />
    <rect
       style="fill:none;stroke:#000000;stroke-width:0.27;stroke-miterlimit:4;stroke-opacity:1;stroke-dasharray:none"
       id="rect3225-2-1-2-0"
       width="11.25"
       height="67.5"
       x="-500.23438"
       y="-849.29688"
       rx="2.4784607e-05"
       ry="0"
       transform="scale(-1,-1)" />
    <rect
       transform="matrix(0,-1,1,0,0,0)"
       style="fill:none;stroke:#000000;stroke-width:0.27;stroke-miterlimit:4;stroke-opacity:1;stroke-dasharray:none"
       id="rect3157-5-4"
       width="180"
       height="180"
       x="-905.54688"
       y="67.109497"
       rx="18"
       ry="18" />
    <rect
       transform="matrix(0,-1,1,0,0,0)"
       style="fill:none;stroke:#000000;stroke-width:0.27;stroke-miterlimit:4;stroke-opacity:1;stroke-dasharray:none"
       id="rect3225-2-12-8"
       width="11.25"
       height="67.5"
       x="-933.67188"
       y="123.35938"
       rx="2.4784607e-05"
       ry="0" />
    <rect
       transform="matrix(0,-1,1,0,0,0)"
       style="fill:none;stroke:#000000;stroke-width:0.27;stroke-miterlimit:4;stroke-opacity:1;stroke-dasharray:none"
       id="rect3225-2-6-1-17"
       width="11.25"
       height="67.5"
       x="-708.67188"
       y="123.35938"
       rx="2.4784607e-05"
       ry="0" />
    <rect
       style="fill:none;stroke:#000000;stroke-width:0.27;stroke-miterlimit:4;stroke-opacity:1;stroke-dasharray:none"
       id="rect3225-2-1-2-9"
       width="11.25"
       height="67.5"
       x="-275.23438"
       y="-849.29688"
       rx="2.4784607e-05"
       ry="0"
       transform="scale(-1,-1)" />
    <rect
       style="fill:none;stroke:#000000;stroke-width:0.27;stroke-miterlimit:4;stroke-opacity:1;stroke-dasharray:none"
       id="rect3225-2-1-2-9-5"
       width="11.25"
       height="67.5"
       x="-50.234375"
       y="-849.29688"
       rx="2.4784607e-05"
       ry="0"
       transform="scale(-1,-1)" />
    <rect
       transform="matrix(0,-1,1,0,0,0)"
       style="fill:none;stroke:#000000;stroke-width:0.27;stroke-miterlimit:4;stroke-opacity:1;stroke-dasharray:none"
       id="rect3225-2-6-1-4-6"
       width="11.25"
       height="67.5"
       x="-438.67188"
       y="449.60938"
       rx="2.4784607e-05"
       ry="0" />
    <rect
       transform="matrix(0,-1,1,0,0,0)"
       style="fill:none;stroke:#000000;stroke-width:0.27;stroke-miterlimit:4;stroke-opacity:1;stroke-dasharray:none"
       id="rect3225-2-6-1-4-6-4"
       width="11.25"
       height="67.5"
       x="-438.67188"
       y="697.10938"
       rx="2.4784607e-05"
       ry="0" />
    <rect
       style="fill:none;stroke:#000000;stroke-width:0.27;stroke-miterlimit:4;stroke-opacity:1;stroke-dasharray:none"
       id="rect3225-2-6-1-4-6-6"
       width="11.25"
       height="67.5"
       x="-376.48438"
       y="-579.29688"
       rx="2.4784607e-05"
       ry="0"
       transform="scale(-1,-1)" />
    <rect
       style="fill:none;stroke:#000000;stroke-width:0.27;stroke-miterlimit:4;stroke-opacity:1;stroke-dasharray:none"
       id="rect3225-2-6-1-4-6-6-8"
       width="11.25"
       height="67.5"
       x="-848.98438"
       y="-579.29688"
       rx="2.4784607e-05"
       ry="0"
       transform="scale(-1,-1)" />
    <path
       style="fill:none;stroke:#000000;stroke-width:0.27;stroke-miterlimit:4;stroke-opacity:1;stroke-dasharray:none"
       d="m 337.10937,658.04684 0,-225 c 0,-12.465 10.035,-22.5 22.5,-22.5 l 495,0 c 12.465,0 22.5,10.035 22.5,22.5 l 0,225"
       id="rect3220-5"
       inkscape:connector-curvature="0"
       sodipodi:nodetypes="cssssc" />
    <path
       style="fill:none;stroke:#000000;stroke-width:0.27;stroke-miterlimit:4;stroke-opacity:1;stroke-dasharray:none;display:inline"
       d="m 337.10937,658.04687 c 0,12.465 -10.035,22.5 -22.5,22.5"
       id="rect3220-5-4"
       inkscape:connector-curvature="0"
       sodipodi:nodetypes="cc" />
    <path
       style="fill:none;stroke:#000000;stroke-width:0.27;stroke-miterlimit:4;stroke-opacity:1;stroke-dasharray:none;display:inline"
       d="m 899.60937,680.54684 c -12.465,0 -22.5,-10.035 -22.5,-22.5"
       id="rect3220-5-4-6"
       inkscape:connector-curvature="0"
       sodipodi:nodetypes="cc" />
    <path
       style="fill:none;stroke:#000000;stroke-width:0.27;stroke-miterlimit:4;stroke-opacity:1;stroke-dasharray:none;display:inline"
       d="m 1192.1094,928.04687 c 0,12.465 -10.035,22.5 -22.5,22.5"
       id="rect3220-5-4-7"
       inkscape:connector-curvature="0"
       sodipodi:nodetypes="cc" />
    <path
       style="fill:none;stroke:#000000;stroke-width:0.27;stroke-miterlimit:4;stroke-opacity:1;stroke-dasharray:none;display:inline"
       d="m 1169.6094,680.54684 c 12.465,0 22.5,10.035 22.5,22.5"
       id="rect3220-5-4-7-1"
       inkscape:connector-curvature="0"
       sodipodi:nodetypes="cc" />
    <path
       style="fill:none;stroke:#000000;stroke-width:0.27;stroke-linecap:butt;stroke-linejoin:miter;stroke-miterlimit:4;stroke-opacity:1;stroke-dasharray:none"
       d="m 899.60937,680.54684 270.00003,0"
       id="path4476"
       inkscape:connector-curvature="0" />
    <path
       style="fill:none;stroke:#000000;stroke-width:0.27;stroke-linecap:butt;stroke-linejoin:miter;stroke-miterlimit:4;stroke-opacity:1;stroke-dasharray:none"
       d="m 1192.1094,703.04684 0,225.00003"
       id="path4478"
       inkscape:connector-curvature="0" />
    <path
       style="fill:none;stroke:#000000;stroke-width:0.27;stroke-linecap:butt;stroke-linejoin:miter;stroke-miterlimit:4;stroke-opacity:1;stroke-dasharray:none"
       d="m 1169.6094,950.54687 -1125.000025,0"
       id="path4480"
       inkscape:connector-curvature="0" />
    <path
       style="fill:none;stroke:#000000;stroke-width:0.27;stroke-linecap:butt;stroke-linejoin:miter;stroke-miterlimit:4;stroke-opacity:1;stroke-dasharray:none"
       d="m 22.109375,928.04687 0,-225.00003"
       id="path4482"
       inkscape:connector-curvature="0" />
    <path
       style="fill:none;stroke:#000000;stroke-width:0.27;stroke-linecap:butt;stroke-linejoin:miter;stroke-miterlimit:4;stroke-opacity:1;stroke-dasharray:none"
       d="m 44.609375,680.54684 269.999995,0"
       id="path4484"
       inkscape:connector-curvature="0" />
    <path
       style="fill:none;stroke:#000000;stroke-width:0.27;stroke-miterlimit:4;stroke-opacity:1;stroke-dasharray:none;display:inline"
       d="m 44.650675,950.50537 c -12.4649,0.046 -22.5368,-9.9521 -22.5827,-22.417"
       id="rect3220-5-4-64"
       inkscape:connector-curvature="0"
       sodipodi:nodetypes="cc" />
    <path
       style="fill:none;stroke:#000000;stroke-width:0.27;stroke-miterlimit:4;stroke-opacity:1;stroke-dasharray:none;display:inline"
       d="m 22.192275,703.12951 c -0.046,-12.46491 9.9521,-22.53678 22.4171,-22.58267"
       id="rect3220-5-4-64-0"
       inkscape:connector-curvature="0"
       sodipodi:nodetypes="cc" />
    <g
       style="font-size:40px;font-style:normal;font-variant:normal;font-weight:bold;font-stretch:normal;text-align:center;line-height:125%;letter-spacing:0px;word-spacing:0px;text-anchor:middle;fill:none;stroke:#000000;stroke-width:0.05177297;stroke-miterlimit:4;stroke-opacity:1;stroke-dasharray:none;display:inline;font-family:Courier New;-inkscape-font-specification:Courier New Bold"
       id="text4522"
       transform="matrix(0,-5.2150763,5.2150763,0,-1817.3091,2392.8536)">
      <path
         d="m 362.44495,462.16965 c 0.57289,1e-5 1.05466,0.19532 1.44531,0.58593 0.3906,0.39064 0.58591,0.85939 0.58594,1.40625 -3e-5,0.55991 -0.29299,1.18491 -0.87891,1.875 -0.88544,1.02866 -1.62762,1.75783 -2.22656,2.1875 -0.88544,0.65105 -1.82945,0.97657 -2.83203,0.97657 -0.75523,0 -1.50392,-0.1888 -2.2461,-0.56641 -0.7422,-0.3776 -1.67319,-1.09374 -2.79297,-2.14844 -1.10678,-1.06769 -1.81641,-1.60155 -2.1289,-1.60156 -0.15626,10e-6 -0.306,0.0521 -0.44922,0.15625 -0.28647,0.1823 -0.75522,0.63152 -1.40625,1.34766 -0.63803,0.71615 -1.08725,1.15235 -1.34766,1.30859 -0.26042,0.14324 -0.52084,0.21485 -0.78125,0.21484 -0.54688,10e-6 -1.02865,-0.20181 -1.44531,-0.60546 -0.40365,-0.40364 -0.60547,-0.87239 -0.60547,-1.40625 0,-0.79426 0.67708,-1.82942 2.03125,-3.10547 1.35416,-1.27603 2.68229,-1.91405 3.98438,-1.91407 0.71613,2e-5 1.45181,0.18882 2.20703,0.56641 0.75519,0.3646 1.75129,1.15887 2.98828,2.38281 0.63801,0.63804 1.10675,1.04168 1.40625,1.21094 0.1953,0.10418 0.37108,0.15626 0.52734,0.15625 0.18228,10e-6 0.34504,-0.0521 0.48828,-0.15625 0.32551,-0.22134 0.84634,-0.7552 1.5625,-1.60156 0.45571,-0.54686 0.80728,-0.89191 1.05469,-1.03516 0.2604,-0.15623 0.54686,-0.23436 0.85938,-0.23437"
         id="path4529"
         inkscape:connector-curvature="0"
         style="fill:none;stroke:#000000;stroke-width:0.05177297;stroke-miterlimit:4;stroke-opacity:1;stroke-dasharray:none" />
    </g>
    <path
       style="fill:none;stroke:#000000;stroke-width:0.27;stroke-linecap:butt;stroke-linejoin:miter;stroke-miterlimit:4;stroke-opacity:1;stroke-dasharray:none;display:inline"
       d="m 100.85937,163.04687 67.5,0 0,11.25 73.51563,0.0781 0.39063,11.32813 10.85937,-0.0781 0,33.75 -11.25,0 0,45 -73.51563,-0.0781 0,11.25 -67.5,0 0,-11.25 L 28.125,264.375 28.515625,253.2031 16.875,253.125 l 0,-33.75 11.25,0 0,-45 72.73437,-0.0781 z"
       id="path4578-1-3"
       inkscape:connector-curvature="0"
       sodipodi:nodetypes="ccccccccccccccccccccc" />
    <path
       sodipodi:type="arc"
       style="fill:none;stroke:#000000;stroke-width:0.27;stroke-miterlimit:4;stroke-opacity:1;stroke-dasharray:none;display:inline"
       id="path4580-2-0"
       sodipodi:cx="1496.25"
       sodipodi:cy="1001.25"
       sodipodi:rx="11.25"
       sodipodi:ry="11.25"
       d="m 1507.5,1001.25 a 11.25,11.25 0 1 1 -22.5,0 11.25,11.25 0 1 1 22.5,0 z"
       transform="translate(-1294.1406,-770.70313)" />
    <path
       style="fill:none;stroke:#000000;stroke-width:0.27000001;stroke-linecap:butt;stroke-linejoin:miter;stroke-miterlimit:4;stroke-opacity:1;stroke-dasharray:none;display:inline"
       d="m 348.75,163.125 28.125,0 0,16.875 -4.21875,0 0,11.25 4.21875,0 0,14.0625 11.25,0 0,-14.0625 4.21875,0 0,-11.25 -4.21875,0 0,-16.875 28.125,0 0,11.25 73.125,0 11.25,0 0,22.5 -11.25,0 0,22.5 11.25,0 0,22.5 -11.25,0 0,22.5 -73.125,0 0,11.25 -67.5,0 0,-11.25 -73.125,0 -11.25,0 0,-22.5 11.25,0 0,-22.5 -11.25,0 0,-22.5 11.25,0 0,-22.5 73.125,0 z"
       id="path4578-1-3-1-8"
       inkscape:connector-curvature="0"
       sodipodi:nodetypes="ccccccccccccccccccccccccccccccccccccccc" />
    <path
       style="fill:none;stroke:#000000;stroke-width:0.27000001;stroke-linecap:butt;stroke-linejoin:miter;stroke-miterlimit:4;stroke-opacity:1;stroke-dasharray:none"
       d="m 33.75,33.75 -11.25,0 0,22.5 11.25,0 0,22.5 -11.25,0 0,22.5 11.25,0 0,22.5 73.125,0 0,11.25 67.5,0 0,-11.25 67.5,0 22.5,0 67.5,0 0,11.25 67.5,0 0,-11.25 157.5,0 0,11.25 67.5,0 0,-11.25 157.5,0 0,11.25 67.5,0 0,-11.25 157.5,0 0,11.25 67.5,0 0,-11.25 73.125,0 0,-22.5 11.25,0 0,-22.5 -11.25,0 0,-22.5 11.25,0 0,-22.5 -11.25,0 -73.125,0 0,-11.25 -67.5,0 0,11.25 -157.5,0 0,-11.25 -67.5,0 0,11.25 -157.5,0 0,-11.25 -67.5,0 0,11.25 -157.5,0 0,-11.25 -67.5,0 0,11.25 -157.5,0 0,-11.25 -67.5,0 0,11.25 z"
       id="path4698"
       inkscape:connector-curvature="0"
       sodipodi:nodetypes="ccccccccccccccccccccccccccccccccccccccccccccccccccccccccccccc" />
    <rect
       style="fill:none;stroke:#000000;stroke-width:0.27;stroke-miterlimit:4;stroke-opacity:1;stroke-dasharray:none"
       id="rect4700"
       width="11.25"
       height="33.75"
       x="247.5"
       y="78.75" />
    <rect
       style="fill:none;stroke:#000000;stroke-width:0.27;stroke-miterlimit:4;stroke-opacity:1;stroke-dasharray:none;display:inline"
       id="rect4700-1"
       width="11.25"
       height="33.75"
       x="472.5"
       y="78.75" />
    <rect
       style="fill:none;stroke:#000000;stroke-width:0.27;stroke-miterlimit:4;stroke-opacity:1;stroke-dasharray:none;display:inline"
       id="rect4700-1-3"
       width="11.25"
       height="33.75"
       x="697.5"
       y="78.75" />
    <rect
       style="fill:none;stroke:#000000;stroke-width:0.27;stroke-miterlimit:4;stroke-opacity:1;stroke-dasharray:none;display:inline"
       id="rect4700-1-3-0"
       width="11.25"
       height="33.75"
       x="922.5"
       y="78.75" />
    <path
       style="fill:none;stroke:#000000;stroke-width:0.27000001;stroke-linecap:butt;stroke-linejoin:miter;stroke-miterlimit:4;stroke-opacity:1;stroke-dasharray:none;display:inline"
       d="m 1738.125,56.25 0,-33.75 -33.75,0 0,11.25 -157.5,0 0,-11.25 -67.5,0 0,11.25 -157.5,0 0,-11.25 -67.5,0 0,11.25 -73.125,0 0,22.5 -11.25,0 0,22.5 11.25,0 0,22.5 -11.25,0 0,22.5 11.25,0 73.125,0 0,11.25 67.5,0 0,-11.25 157.5,0 0,11.25 67.5,0 0,-11.25 157.5,0 0,11.25 33.75,0 0,-33.75"
       id="path5032"
       inkscape:connector-curvature="0"
       sodipodi:nodetypes="ccccccccccccccccccccccccccccccccc" />
    <path
       style="fill:none;stroke:#000000;stroke-width:0.27000001;stroke-linecap:butt;stroke-linejoin:miter;stroke-miterlimit:4;stroke-opacity:1;stroke-dasharray:none;display:inline"
       d="m 1203.75,753.75 0,33.75 33.75,0 0,-11.25 157.5,0 0,11.25 67.5,0 0,-11.25 157.5,0 0,11.25 67.5,0 0,-11.25 73.125,0 11.25,0 0,-22.5 -11.25,0 0,-22.5 11.25,0 0,-22.5 -11.25,0 0,-22.5 -73.125,0 0,-11.25 -67.5,0 0,11.25 -67.5,0 -22.5,0 -67.5,0 0,-11.25 -67.5,0 0,11.25 -157.5,0 0,-11.25 -33.75,0 0,33.75"
       id="path4698-8"
       inkscape:connector-curvature="0"
       sodipodi:nodetypes="ccccccccccccccccccccccccccccccccccc" />
    <rect
       style="fill:none;stroke:#000000;stroke-width:0.27;stroke-miterlimit:4;stroke-opacity:1;stroke-dasharray:none;display:inline"
       id="rect4700-0"
       width="11.25"
       height="33.75"
       x="-1546.875"
       y="-731.25"
       transform="scale(-1,-1)" />
    <rect
       style="fill:none;stroke:#000000;stroke-width:0.27;stroke-miterlimit:4;stroke-opacity:1;stroke-dasharray:none;display:inline"
       id="rect4700-1-8"
       width="11.25"
       height="33.75"
       x="-1321.875"
       y="-731.25"
       transform="scale(-1,-1)" />
    <rect
       style="fill:none;stroke:#000000;stroke-width:0.27;stroke-miterlimit:4;stroke-opacity:1;stroke-dasharray:none;display:inline"
       id="rect4700-1-3-2"
       width="11.25"
       height="33.75"
       x="-1631.25"
       y="-78.75"
       transform="scale(-1,-1)" />
    <rect
       style="fill:none;stroke:#000000;stroke-width:0.27;stroke-miterlimit:4;stroke-opacity:1;stroke-dasharray:none;display:inline"
       id="rect4700-1-3-0-2"
       width="11.25"
       height="33.75"
       x="-1406.25"
       y="-78.75"
       transform="scale(-1,-1)" />
    <path
       style="fill:none;stroke:#000000;stroke-width:0.27;stroke-miterlimit:4;stroke-opacity:1;stroke-dasharray:none"
       d="m 1203.75,708.75 11.25,0 c 12.465,0 22.5,10.035 22.5,22.5 0,12.465 -10.035,22.5 -22.5,22.5 l -11.25,0"
       id="path5041"
       inkscape:connector-curvature="0" />
    <path
       style="fill:none;stroke:#000000;stroke-width:0.27;stroke-miterlimit:4;stroke-opacity:1;stroke-dasharray:none"
       d="m 1738.125,101.25 -11.25,0 c -12.465,0 -22.5,-10.035 -22.5,-22.5 0,-12.465 10.035,-22.5 22.5,-22.5 l 11.25,0"
       id="rect4789"
       inkscape:connector-curvature="0" />
    <path
       style="fill:none;stroke:#000000;stroke-width:0.27000001;stroke-linecap:butt;stroke-linejoin:miter;stroke-miterlimit:4;stroke-opacity:1;stroke-dasharray:none"
       d="m 1231.875,810 73.125,0 0,-11.25 67.5,0 0,11.25 180,0 0,-11.25 67.5,0 0,11.25 73.125,0 0,45 11.25,0 0,33.75 0,11.25 -11.25,0 -73.125,0 0,11.25 -67.5,0 0,-11.25 -180,0 0,11.25 -67.5,0 0,-11.25 -73.125,0 -11.25,0 0,-11.25 0,-33.75 11.25,0 z"
       id="path4793"
       inkscape:connector-curvature="0"
       sodipodi:nodetypes="ccccccccccccccccccccccccccccc" />
    <path
       style="fill:none;stroke:#000000;stroke-width:0.27000001;stroke-linecap:butt;stroke-linejoin:miter;stroke-miterlimit:4;stroke-opacity:1;stroke-dasharray:none;display:inline"
       d="m 1687.5,540 0,33.75 -11.25,0 0,45 -73.125,0 0,11.25 -67.5,0 0,-11.25 -118.125,0 0,-11.25 -11.25,0 0,-33.75 11.25,0 0,-45 118.125,0 0,-11.25 28.125,0 0,22.5 -4.2187,0 0,11.25 4.2187,0 0,14.0625 11.25,0 0,-14.0625 4.2188,0 0,-11.25 -4.2188,0 0,-22.5 28.125,0 0,11.25 73.125,0 11.25,0 z"
       id="path4797-4"
       inkscape:connector-curvature="0"
       sodipodi:nodetypes="ccccccccccccccccccccccccccccccccc" />
    <path
       style="fill:none;stroke:#000000;stroke-width:0.27;stroke-linecap:butt;stroke-linejoin:miter;stroke-miterlimit:4;stroke-opacity:1;stroke-dasharray:none"
       d="m 1445.625,765 0,-33.75 -11.25,0 0,33.75 z"
       id="path4817"
       inkscape:connector-curvature="0"
       sodipodi:nodetypes="ccccc" />
    <path
       style="fill:none;stroke:#000000;stroke-width:0.27;stroke-linecap:butt;stroke-linejoin:miter;stroke-miterlimit:4;stroke-opacity:1;stroke-dasharray:none;display:inline"
       d="m 1507.5,112.5 0,-33.75 -11.25,0 0,33.75 z"
       id="path4817-4"
       inkscape:connector-curvature="0"
       sodipodi:nodetypes="ccccc" />
    <path
       style="fill:none;stroke:#000000;stroke-width:0.27;stroke-linecap:butt;stroke-linejoin:miter;stroke-miterlimit:4;stroke-opacity:1;stroke-dasharray:none"
       d="m 1468.125,551.25 22.5,0 0,11.25 -22.5,0 z"
       id="path4837"
       inkscape:connector-curvature="0" />
    <path
       style="fill:none;stroke:#000000;stroke-width:0.27;stroke-linecap:butt;stroke-linejoin:miter;stroke-miterlimit:4;stroke-opacity:1;stroke-dasharray:none;display:inline"
       d="m 1468.125,585 22.5,0 0,11.25 -22.5,0 z"
       id="path4837-1"
       inkscape:connector-curvature="0" />
    <path
       style="fill:none;stroke:#000000;stroke-width:0.27;stroke-linecap:butt;stroke-linejoin:miter;stroke-miterlimit:4;stroke-opacity:1;stroke-dasharray:none;display:inline"
       d="m 1513.125,551.25 22.5,0 0,11.25 -22.5,0 z"
       id="path4837-1-7"
       inkscape:connector-curvature="0" />
    <path
       style="fill:none;stroke:#000000;stroke-width:0.27;stroke-linecap:butt;stroke-linejoin:miter;stroke-miterlimit:4;stroke-opacity:1;stroke-dasharray:none;display:inline"
       d="m 1513.125,585 22.5,0 0,11.25 -22.5,0 z"
       id="path4837-1-7-6"
       inkscape:connector-curvature="0" />
    <path
       style="fill:none;stroke:#000000;stroke-width:0.27;stroke-linecap:butt;stroke-linejoin:miter;stroke-miterlimit:4;stroke-opacity:1;stroke-dasharray:none;display:inline"
       d="m 1558.125,585 22.5,0 0,11.25 -22.5,0 z"
       id="path4837-1-7-6-1-6"
       inkscape:connector-curvature="0" />
    <path
       style="fill:none;stroke:#000000;stroke-width:0.27;stroke-linecap:butt;stroke-linejoin:miter;stroke-miterlimit:4;stroke-opacity:1;stroke-dasharray:none;display:inline"
       d="m 1603.125,551.25 22.5,0 0,11.25 -22.5,0 z"
       id="path4837-1-7-6-1-6-8"
       inkscape:connector-curvature="0" />
    <path
       style="fill:none;stroke:#000000;stroke-width:0.27;stroke-linecap:butt;stroke-linejoin:miter;stroke-miterlimit:4;stroke-opacity:1;stroke-dasharray:none;display:inline"
       d="m 1603.125,585 22.5,0 0,11.25 -22.5,0 z"
       id="path4837-1-7-6-1-6-8-3"
       inkscape:connector-curvature="0" />
    <path
       style="fill:none;stroke:#000000;stroke-width:0.27000001;stroke-linecap:butt;stroke-linejoin:miter;stroke-miterlimit:4;stroke-opacity:1;stroke-dasharray:none"
       d="m 1687.5,405 0,11.25 0,33.75 -11.25,0 0,11.25 -50.625,0 0,33.75 -22.5,0 0,11.25 -67.5,0 0,-11.25 -118.125,0 0,-11.25 -11.25,0 0,-33.75 11.25,0 0,-45 118.125,0 0,-11.25 28.125,0 0,16.875 -4.2187,0 0,11.25 4.2187,0 0,14.0625 11.25,0 0,-14.0625 4.2188,0 0,-11.25 -4.2188,0 0,-16.875 28.125,0 0,11.25 73.125,0 z"
       id="path4967"
       inkscape:connector-curvature="0"
       sodipodi:nodetypes="ccccccccccccccccccccccccccccccccccc" />
    <path
       style="fill:none;stroke:#000000;stroke-width:0.27;stroke-linecap:butt;stroke-linejoin:miter;stroke-miterlimit:4;stroke-opacity:1;stroke-dasharray:none;display:inline"
       d="m 1563.3594,382.42187 0,-11.25 67.5,0 0,11.25 84.375,0 0,-84.375 -11.25,0 0,-67.5 11.25,0 0,-84.375 -84.375,0 0,11.25 -67.5,0 0,-11.25 -157.5,0 0,11.25 -67.5,0 0,-11.25 -157.5,0 0,11.25 -67.5,0 0,-11.25 -157.50003,0 0,11.25 -67.5,0 0,-11.25 -157.5,0 0,11.25 -67.5,0 0,-11.25 -84.375,0 0,84.375 11.25,0 0,67.5 -11.25,0 0,84.375 84.375,0 0,-11.25 67.5,0 0,11.25 157.5,0 0,-11.25 67.5,0 0,11.25 -50.625,0 0,118.125 11.25,0 0,67.5 -11.25,0 0,84.375 84.375,0 0,-11.25 67.50003,0 0,11.25 180,0 0,-11.25 67.5,0 0,11.25 84.375,0 0,-84.375 -11.25,0 0,-67.5 11.25,0 0,-118.125 -50.625,0 0,-11.25 67.5,0 0,11.25 z"
       id="path4969"
       inkscape:connector-curvature="0"
       sodipodi:nodetypes="ccccccccccccccccccccccccccccccccccccccccccccccccccccccccccccccccccccc" />
    <rect
       style="fill:none;stroke:#000000;stroke-width:0.27;stroke-miterlimit:4;stroke-opacity:1;stroke-dasharray:none;display:inline"
       id="rect3225-2-1-2-6"
       width="11.25"
       height="67.5"
       x="803.98438"
       y="230.54688"
       rx="2.4784607e-05"
       ry="0" />
    <rect
       style="fill:none;stroke:#000000;stroke-width:0.27;stroke-miterlimit:4;stroke-opacity:1;stroke-dasharray:none;display:inline"
       id="rect3225-2-1-2-1-6"
       width="11.25"
       height="67.5"
       x="1028.9844"
       y="230.54688"
       rx="2.4784607e-05"
       ry="0" />
    <rect
       style="fill:none;stroke:#000000;stroke-width:0.27;stroke-miterlimit:4;stroke-opacity:1;stroke-dasharray:none;display:inline"
       id="rect3225-2-1-2-0-7"
       width="11.25"
       height="67.5"
       x="1253.9844"
       y="230.54688"
       rx="2.4784607e-05"
       ry="0" />
    <rect
       style="fill:none;stroke:#000000;stroke-width:0.27;stroke-miterlimit:4;stroke-opacity:1;stroke-dasharray:none;display:inline"
       id="rect3225-2-1-2-9-6"
       width="11.25"
       height="67.5"
       x="1478.9844"
       y="230.54688"
       rx="2.4784607e-05"
       ry="0" />
    <rect
       style="fill:none;stroke:#000000;stroke-width:0.27;stroke-miterlimit:4;stroke-opacity:1;stroke-dasharray:none;display:inline"
       id="rect3225-2-1-2-0-7-1"
       width="11.25"
       height="67.5"
       x="-382.42188"
       y="-1180.8594"
       rx="2.4784607e-05"
       ry="0"
       transform="matrix(0,-1,-1,0,0,0)" />
    <path
       sodipodi:type="arc"
       style="fill:none;stroke:#000000;stroke-width:0.27;stroke-miterlimit:4;stroke-opacity:1;stroke-dasharray:none"
       id="path5043"
       sodipodi:cx="1687.5"
       sodipodi:cy="270"
       sodipodi:rx="22.5"
       sodipodi:ry="22.5"
       d="M 1687.5,292.5 A 22.5,22.5 0 0 1 1665,270 l 22.5,0 z"
       sodipodi:start="1.5707963"
       sodipodi:end="3.1415927"
       transform="translate(-0.390625,-106.95313)" />
    <path
       transform="matrix(0,1,-1,0,1957.1094,-1321.9531)"
       sodipodi:type="arc"
       style="fill:none;stroke:#000000;stroke-width:0.27;stroke-miterlimit:4;stroke-opacity:1;stroke-dasharray:none;display:inline"
       id="path5043-5"
       sodipodi:cx="1687.5"
       sodipodi:cy="270"
       sodipodi:rx="22.5"
       sodipodi:ry="22.5"
       d="M 1687.5,292.5 A 22.5,22.5 0 0 1 1665,270 l 22.5,0 z"
       sodipodi:start="1.5707963"
       sodipodi:end="3.1415927" />
    <path
       transform="matrix(0.99998735,0.00503081,-0.00503081,0.99998735,-313.56389,126.57065)"
       sodipodi:type="arc"
       style="fill:none;stroke:#000000;stroke-width:0.27;stroke-miterlimit:4;stroke-opacity:1;stroke-dasharray:none;display:inline"
       id="path5043-5-2"
       sodipodi:cx="1687.5"
       sodipodi:cy="270"
       sodipodi:rx="22.5"
       sodipodi:ry="22.5"
       d="M 1687.5,292.5 A 22.5,22.5 0 0 1 1665,270 l 22.5,0 z"
       sodipodi:start="1.5707963"
       sodipodi:end="3.1415927" />
    <path
       transform="matrix(-0.00503081,0.99998735,-0.99998735,-0.00503081,1650.8729,-1056.1206)"
       sodipodi:type="arc"
       style="fill:none;stroke:#000000;stroke-width:0.27;stroke-miterlimit:4;stroke-opacity:1;stroke-dasharray:none;display:inline"
       id="path5043-5-2-3"
       sodipodi:cx="1687.5"
       sodipodi:cy="270"
       sodipodi:rx="22.5"
       sodipodi:ry="22.5"
       d="M 1687.5,292.5 A 22.5,22.5 0 0 1 1665,270 l 22.5,0 z"
       sodipodi:start="1.5707963"
       sodipodi:end="3.1415927" />
    <path
       style="fill:none;stroke:#000000;stroke-width:0.27;stroke-linecap:butt;stroke-linejoin:miter;stroke-miterlimit:4;stroke-opacity:1;stroke-dasharray:none;display:inline"
       d="m 167.96874,286.71877 67.5,0 0,11.25 73.51563,0.0781 0.39063,11.32813 10.85937,-0.0781 0,33.75 -11.25,0 0,45 -73.51563,-0.0781 0,11.25 -67.5,0 0,-11.25 -72.73437,0.0781 0.39062,-11.1719 -11.64062,-0.0781 0,-33.75 11.25,0 0,-45 72.73437,-0.0781 z"
       id="path4578-1-3-8"
       inkscape:connector-curvature="0"
       sodipodi:nodetypes="ccccccccccccccccccccc" />
    <path
       sodipodi:type="arc"
       style="fill:none;stroke:#000000;stroke-width:0.27;stroke-miterlimit:4;stroke-opacity:1;stroke-dasharray:none;display:inline"
       id="path4580-2-0-3"
       sodipodi:cx="1496.25"
       sodipodi:cy="1001.25"
       sodipodi:rx="11.25"
       sodipodi:ry="11.25"
       d="m 1507.5,1001.25 a 11.25,11.25 0 1 1 -22.5,0 11.25,11.25 0 1 1 22.5,0 z"
       transform="translate(-1227.0312,-647.03123)" />
    <path
       style="fill:none;stroke:#000000;stroke-width:0.27;stroke-linecap:butt;stroke-linejoin:miter;stroke-miterlimit:4;stroke-opacity:1;stroke-dasharray:none;display:inline"
       d="m 112.49997,410.625 67.5,0 0,11.25 73.51563,0.0781 0.39063,11.32813 10.85937,-0.0781 0,33.75 -11.25,0 0,45 -73.51563,-0.0781 0,11.25 -67.5,0 0,-11.25 -72.73437,0.0781 0.39062,-11.1719 -11.64062,-0.0781 0,-33.75 11.25,0 0,-45 72.73437,-0.0781 z"
       id="path4578-1-3-8-5"
       inkscape:connector-curvature="0"
       sodipodi:nodetypes="ccccccccccccccccccccc" />
    <path
       sodipodi:type="arc"
       style="fill:none;stroke:#000000;stroke-width:0.27;stroke-miterlimit:4;stroke-opacity:1;stroke-dasharray:none;display:inline"
       id="path4580-2-0-3-0"
       sodipodi:cx="1496.25"
       sodipodi:cy="1001.25"
       sodipodi:rx="11.25"
       sodipodi:ry="11.25"
       d="m 1507.5,1001.25 a 11.25,11.25 0 1 1 -22.5,0 11.25,11.25 0 1 1 22.5,0 z"
       transform="translate(-1282.5,-523.125)" />
    <path
       style="fill:none;stroke:#000000;stroke-width:0.27;stroke-linecap:butt;stroke-linejoin:miter;stroke-miterlimit:4;stroke-opacity:1;stroke-dasharray:none;display:inline"
       d="m 151.875,539.99997 67.5,0 0,11.25 73.51563,0.0781 0.39063,11.32813 10.85937,-0.0781 0,33.75 -11.25,0 0,45 -73.51563,-0.0781 0,11.25 -67.5,0 0,-11.25 -72.73437,0.0781 0.39062,-11.1719 -11.64062,-0.0781 0,-33.75 11.25,0 0,-45 72.73437,-0.0781 z"
       id="path4578-1-3-8-5-4"
       inkscape:connector-curvature="0"
       sodipodi:nodetypes="ccccccccccccccccccccc" />
    <path
       sodipodi:type="arc"
       style="fill:none;stroke:#000000;stroke-width:0.27;stroke-miterlimit:4;stroke-opacity:1;stroke-dasharray:none;display:inline"
       id="path4580-2-0-3-0-8"
       sodipodi:cx="1496.25"
       sodipodi:cy="1001.25"
       sodipodi:rx="11.25"
       sodipodi:ry="11.25"
       d="m 1507.5,1001.25 a 11.25,11.25 0 1 1 -22.5,0 11.25,11.25 0 1 1 22.5,0 z"
       transform="translate(-1243.125,-393.75003)" />
    <path
       style="fill:none;stroke:#000000;stroke-width:0.27000001;stroke-linecap:butt;stroke-linejoin:miter;stroke-miterlimit:4;stroke-opacity:1;stroke-dasharray:none;display:inline"
       d="m 416.25,286.875 28.125,0 0,16.875 -4.21875,0 0,11.25 4.21875,0 0,14.0625 11.25,0 0,-14.0625 4.21875,0 0,-11.25 -4.21875,0 0,-16.875 28.125,0 0,11.25 73.125,0 11.25,0 0,22.5 -11.25,0 0,22.5 11.25,0 0,22.5 -11.25,0 0,22.5 -73.125,0 0,11.25 -67.5,0 0,-11.25 -73.125,0 -11.25,0 0,-22.5 11.25,0 0,-22.5 -11.25,0 0,-22.5 11.25,0 0,-22.5 73.125,0 z"
       id="path4578-1-3-1-8-4"
       inkscape:connector-curvature="0"
       sodipodi:nodetypes="ccccccccccccccccccccccccccccccccccccccc" />
  </g>
</svg>
