<?xml version="1.0" encoding="UTF-8" standalone="no"?>
<!-- Created with Inkscape (http://www.inkscape.org/) -->

<svg
   xmlns:dc="http://purl.org/dc/elements/1.1/"
   xmlns:cc="http://creativecommons.org/ns#"
   xmlns:rdf="http://www.w3.org/1999/02/22-rdf-syntax-ns#"
   xmlns:svg="http://www.w3.org/2000/svg"
   xmlns="http://www.w3.org/2000/svg"
   xmlns:sodipodi="http://sodipodi.sourceforge.net/DTD/sodipodi-0.dtd"
   xmlns:inkscape="http://www.inkscape.org/namespaces/inkscape"
   width="2160"
   height="1080"
   id="svg2"
   version="1.1"
   inkscape:version="0.48.3.1 r9886"
   sodipodi:docname="drawing.svg">
  <defs
     id="defs4" />
  <sodipodi:namedview
     id="base"
     pagecolor="#ffffff"
     bordercolor="#666666"
     borderopacity="1.0"
     inkscape:pageopacity="0.0"
     inkscape:pageshadow="2"
     inkscape:zoom="0.7753581"
     inkscape:cx="342.52999"
     inkscape:cy="605.08005"
     inkscape:document-units="in"
     inkscape:current-layer="layer3"
     showgrid="true"
     inkscape:window-width="1366"
     inkscape:window-height="768"
     inkscape:window-x="0"
     inkscape:window-y="0"
     inkscape:window-maximized="0"
     units="in">
    <inkscape:grid
       type="xygrid"
       id="grid2985"
       empspacing="4"
       visible="true"
       enabled="true"
       snapvisiblegridlinesonly="true"
       units="in"
       spacingx="0.0625in"
       spacingy="0.0625in" />
  </sodipodi:namedview>
  <metadata
     id="metadata7">
    <rdf:RDF>
      <cc:Work
         rdf:about="">
        <dc:format>image/svg+xml</dc:format>
        <dc:type
           rdf:resource="http://purl.org/dc/dcmitype/StillImage" />
        <dc:title />
      </cc:Work>
    </rdf:RDF>
  </metadata>
  <g
     inkscape:label="outline"
     inkscape:groupmode="layer"
     id="layer1"
     transform="translate(0,27.638)"
     style="opacity:0.5;display:inline">
    <rect
       style="fill:none;stroke:#ff0000;stroke-width:1.5;stroke-miterlimit:4;stroke-opacity:1;stroke-dasharray:none"
       id="rect3083"
       width="270"
       height="270"
       x="0"
       y="782.36194"
       rx="22.5"
       ry="22.5" />
    <rect
       style="fill:none;stroke:#ff0000;stroke-width:1.5;stroke-miterlimit:4;stroke-opacity:1;stroke-dasharray:none"
       id="rect3220"
       width="270"
       height="540"
       x="270"
       y="197.362"
       rx="22.5"
       ry="22.5" />
    <rect
       style="fill:none;stroke:#ff0000;stroke-width:1.5;stroke-miterlimit:4;stroke-opacity:1;stroke-dasharray:none"
       id="rect3227"
       width="225"
       height="423"
       x="270"
       y="253.612"
       rx="0"
       ry="0" />
    <rect
       style="fill:none;stroke:#ff0000;stroke-width:1.5;stroke-miterlimit:4;stroke-opacity:1;stroke-dasharray:none"
       id="rect3083-5"
       width="270"
       height="270"
       x="0"
       y="557.362"
       rx="0"
       ry="0" />
    <rect
       style="fill:none;stroke:#ff0000;stroke-width:1.5;stroke-miterlimit:4;stroke-opacity:1;stroke-dasharray:none"
       id="rect3083-5-8"
       width="270"
       height="270"
       x="0"
       y="332.36194"
       rx="0"
       ry="0" />
    <rect
       style="fill:none;stroke:#ff0000;stroke-width:1.5;stroke-miterlimit:4;stroke-opacity:1;stroke-dasharray:none"
       id="rect3083-5-89"
       width="270"
       height="270"
       x="0"
       y="107.362"
       rx="0"
       ry="0" />
    <rect
       style="fill:none;stroke:#ff0000;stroke-width:1.5;stroke-miterlimit:4;stroke-opacity:1;stroke-dasharray:none"
       id="rect3083-5-6"
       width="270"
       height="270"
       x="0"
       y="-117.638"
       rx="22.5"
       ry="22.5" />
  </g>
  <g
     inkscape:groupmode="layer"
     id="layer3"
     inkscape:label="laser"
     style="display:inline">
    <rect
       transform="translate(0,27.638)"
       style="fill:none;stroke:#000000;stroke-width:1.5;stroke-miterlimit:4;stroke-opacity:1;stroke-dasharray:none"
       id="rect3157"
       width="180"
       height="180"
       x="44.999996"
       y="827.362"
       rx="18"
       ry="18" />
    <rect
       transform="translate(0,27.638)"
       style="fill:none;stroke:#000000;stroke-width:1.40276587;stroke-miterlimit:4;stroke-opacity:1;stroke-dasharray:none"
       id="rect3225-2"
       width="22.5"
       height="67.5"
       x="11.25"
       y="883.612"
       rx="2.4784607e-05"
       ry="0" />
    <rect
       transform="translate(0,27.638)"
       style="fill:none;stroke:#000000;stroke-width:1.40276587;stroke-miterlimit:4;stroke-opacity:1;stroke-dasharray:none"
       id="rect3225-2-6"
       width="22.5"
       height="67.5"
       x="236.25"
       y="883.612"
       rx="2.4784607e-05"
       ry="0" />
    <rect
       style="fill:none;stroke:#000000;stroke-width:1.40276587;stroke-miterlimit:4;stroke-opacity:1;stroke-dasharray:none"
       id="rect3225-2-1"
       width="22.5"
       height="67.5"
       x="-1041.1121"
       y="101.25"
       rx="2.4784607e-05"
       ry="0"
       transform="matrix(0,-1,1,0,0,27.638)" />
    <rect
       transform="translate(0,27.638)"
       style="fill:none;stroke:#000000;stroke-width:1.5;stroke-miterlimit:4;stroke-opacity:1;stroke-dasharray:none"
       id="rect3157-5"
       width="180"
       height="180"
       x="45"
       y="602.36206"
       rx="18"
       ry="18" />
    <rect
       transform="translate(0,27.638)"
       style="fill:none;stroke:#000000;stroke-width:1.40276587;stroke-miterlimit:4;stroke-opacity:1;stroke-dasharray:none"
       id="rect3225-2-12"
       width="22.5"
       height="67.5"
       x="11.25"
       y="658.61212"
       rx="2.4784607e-05"
       ry="0" />
    <rect
       transform="translate(0,27.638)"
       style="fill:none;stroke:#000000;stroke-width:1.40276587;stroke-miterlimit:4;stroke-opacity:1;stroke-dasharray:none"
       id="rect3225-2-6-1"
       width="22.5"
       height="67.5"
       x="236.25"
       y="658.61212"
       rx="2.4784607e-05"
       ry="0" />
    <rect
       style="fill:none;stroke:#000000;stroke-width:1.40276587;stroke-miterlimit:4;stroke-opacity:1;stroke-dasharray:none"
       id="rect3225-2-1-2"
       width="22.5"
       height="67.5"
       x="-816.11212"
       y="101.25"
       rx="2.4784607e-05"
       ry="0"
       transform="matrix(0,-1,1,0,0,27.638)" />
    <rect
       transform="translate(0,27.638)"
       style="fill:none;stroke:#000000;stroke-width:1.5;stroke-miterlimit:4;stroke-opacity:1;stroke-dasharray:none"
       id="rect3157-5-3"
       width="180"
       height="180"
       x="45"
       y="377.362"
       rx="18"
       ry="18" />
    <rect
       transform="translate(0,27.638)"
       style="fill:none;stroke:#000000;stroke-width:1.40276587;stroke-miterlimit:4;stroke-opacity:1;stroke-dasharray:none"
       id="rect3225-2-12-7"
       width="22.5"
       height="67.5"
       x="11.25"
       y="433.61206"
       rx="2.4784607e-05"
       ry="0" />
    <rect
       transform="translate(0,27.638)"
       style="fill:none;stroke:#000000;stroke-width:1.40276587;stroke-miterlimit:4;stroke-opacity:1;stroke-dasharray:none"
       id="rect3225-2-6-1-1"
       width="22.5"
       height="67.5"
       x="236.25"
       y="433.61206"
       rx="2.4784607e-05"
       ry="0" />
    <rect
       style="fill:none;stroke:#000000;stroke-width:1.40276587;stroke-miterlimit:4;stroke-opacity:1;stroke-dasharray:none"
       id="rect3225-2-1-2-1"
       width="22.5"
       height="67.5"
       x="-591.11206"
       y="101.25"
       rx="2.4784607e-05"
       ry="0"
       transform="matrix(0,-1,1,0,0,27.638)" />
    <rect
       transform="translate(0,27.638)"
       style="fill:none;stroke:#000000;stroke-width:1.5;stroke-miterlimit:4;stroke-opacity:1;stroke-dasharray:none"
       id="rect3157-5-7"
       width="180"
       height="180"
       x="45"
       y="152.36206"
       rx="18"
       ry="18" />
    <rect
       transform="translate(0,27.638)"
       style="fill:none;stroke:#000000;stroke-width:1.40276587;stroke-miterlimit:4;stroke-opacity:1;stroke-dasharray:none"
       id="rect3225-2-12-5"
       width="22.5"
       height="67.5"
       x="11.25"
       y="208.61212"
       rx="2.4784607e-05"
       ry="0" />
    <rect
       transform="translate(0,27.638)"
       style="fill:none;stroke:#000000;stroke-width:1.40276587;stroke-miterlimit:4;stroke-opacity:1;stroke-dasharray:none"
       id="rect3225-2-6-1-4"
       width="22.5"
       height="67.5"
       x="236.25"
       y="208.61212"
       rx="2.4784607e-05"
       ry="0" />
    <rect
       style="fill:none;stroke:#000000;stroke-width:1.40276587;stroke-miterlimit:4;stroke-opacity:1;stroke-dasharray:none"
       id="rect3225-2-1-2-0"
       width="22.5"
       height="67.5"
       x="-366.11212"
       y="101.25"
       rx="2.4784607e-05"
       ry="0"
       transform="matrix(0,-1,1,0,0,27.638)" />
    <rect
       transform="translate(0,27.638)"
       style="fill:none;stroke:#000000;stroke-width:1.5;stroke-miterlimit:4;stroke-opacity:1;stroke-dasharray:none"
       id="rect3157-5-4"
       width="180"
       height="180"
       x="45"
       y="-72.637939"
       rx="18"
       ry="18" />
    <rect
       transform="translate(0,27.638)"
       style="fill:none;stroke:#000000;stroke-width:1.40276587;stroke-miterlimit:4;stroke-opacity:1;stroke-dasharray:none"
       id="rect3225-2-12-8"
       width="22.5"
       height="67.5"
       x="11.25"
       y="-16.387878"
       rx="2.4784607e-05"
       ry="0" />
    <rect
       transform="translate(0,27.638)"
       style="fill:none;stroke:#000000;stroke-width:1.40276587;stroke-miterlimit:4;stroke-opacity:1;stroke-dasharray:none"
       id="rect3225-2-6-1-17"
       width="22.5"
       height="67.5"
       x="236.25"
       y="-16.387878"
       rx="2.4784607e-05"
       ry="0" />
    <rect
       style="fill:none;stroke:#000000;stroke-width:1.40276587;stroke-miterlimit:4;stroke-opacity:1;stroke-dasharray:none"
       id="rect3225-2-1-2-9"
       width="22.5"
       height="67.5"
       x="-141.11212"
       y="101.25"
       rx="2.4784607e-05"
       ry="0"
       transform="matrix(0,-1,1,0,0,27.638)" />
    <rect
       style="fill:none;stroke:#000000;stroke-width:1.40276587;stroke-miterlimit:4;stroke-opacity:1;stroke-dasharray:none"
       id="rect3225-2-1-2-9-5"
       width="22.5"
       height="67.5"
       x="83.888"
       y="101.25"
       rx="2.4784607e-05"
       ry="0"
       transform="matrix(0,-1,1,0,0,27.638)" />
    <rect
       transform="translate(0,27.638)"
       style="fill:none;stroke:#000000;stroke-width:1.40276587;stroke-miterlimit:4;stroke-opacity:1;stroke-dasharray:none"
       id="rect3225-2-6-1-4-6"
       width="22.5"
       height="67.5"
       x="506.25"
       y="309.862"
       rx="2.4784607e-05"
       ry="0" />
    <rect
       transform="translate(0,27.638)"
       style="fill:none;stroke:#000000;stroke-width:1.40276587;stroke-miterlimit:4;stroke-opacity:1;stroke-dasharray:none"
       id="rect3225-2-6-1-4-6-4"
       width="22.5"
       height="67.5"
       x="506.25"
       y="557.362"
       rx="2.4784607e-05"
       ry="0" />
    <rect
       style="fill:none;stroke:#000000;stroke-width:1.40276587;stroke-miterlimit:4;stroke-opacity:1;stroke-dasharray:none"
       id="rect3225-2-6-1-4-6-6"
       width="22.5"
       height="67.5"
       x="-242.362"
       y="371.25"
       rx="2.4784607e-05"
       ry="0"
       transform="matrix(0,-1,1,0,0,27.638)" />
    <rect
       style="fill:none;stroke:#000000;stroke-width:1.40276587;stroke-miterlimit:4;stroke-opacity:1;stroke-dasharray:none"
       id="rect3225-2-6-1-4-6-6-8"
       width="22.5"
       height="67.5"
       x="-714.862"
       y="371.25"
       rx="2.4784607e-05"
       ry="0"
       transform="matrix(0,-1,1,0,0,27.638)" />
    <path
       style="fill:none;stroke:#000000;stroke-width:1.5;stroke-miterlimit:4;stroke-opacity:1"
       d="m 292.5,225 225,0 c 12.465,0 22.5,10.035 22.5,22.5 l 0,495 c 0,12.465 -10.035,22.5 -22.5,22.5 l -225,0"
       id="rect3220-5"
       inkscape:connector-curvature="0"
       sodipodi:nodetypes="cssssc" />
    <path
       style="fill:none;stroke:#000000;stroke-width:1.5;stroke-miterlimit:4;stroke-opacity:1;display:inline"
       d="M 292.5,225 C 280.035,225 270,214.965 270,202.5"
       id="rect3220-5-4"
       inkscape:connector-curvature="0"
       sodipodi:nodetypes="cc" />
    <path
       style="fill:none;stroke:#000000;stroke-width:1.5;stroke-miterlimit:4;stroke-opacity:1;display:inline"
       d="M 270,787.5 C 270,775.035 280.035,765 292.5,765"
       id="rect3220-5-4-6"
       inkscape:connector-curvature="0"
       sodipodi:nodetypes="cc" />
    <path
       style="fill:none;stroke:#000000;stroke-width:1.5;stroke-miterlimit:4;stroke-opacity:1;display:inline"
       d="M 22.5,1080 C 10.035,1080 0,1069.965 0,1057.5"
       id="rect3220-5-4-7"
       inkscape:connector-curvature="0"
       sodipodi:nodetypes="cc" />
    <path
       style="fill:none;stroke:#000000;stroke-width:1.5;stroke-miterlimit:4;stroke-opacity:1;display:inline"
       d="m 270,1057.5 c 0,12.465 -10.035,22.5 -22.5,22.5"
       id="rect3220-5-4-7-1"
       inkscape:connector-curvature="0"
       sodipodi:nodetypes="cc" />
    <path
       style="fill:none;stroke:#000000;stroke-width:1px;stroke-linecap:butt;stroke-linejoin:miter;stroke-opacity:1"
       d="m 270,787.5 0,270"
       id="path4476"
       inkscape:connector-curvature="0" />
    <path
       style="fill:none;stroke:#000000;stroke-width:1px;stroke-linecap:butt;stroke-linejoin:miter;stroke-opacity:1"
       d="m 247.5,1080 -225,0"
       id="path4478"
       inkscape:connector-curvature="0" />
    <path
       style="fill:none;stroke:#000000;stroke-width:1px;stroke-linecap:butt;stroke-linejoin:miter;stroke-opacity:1"
       d="M 0,1057.5 0,-67.5"
       id="path4480"
       inkscape:connector-curvature="0" />
    <path
       style="fill:none;stroke:#000000;stroke-width:1px;stroke-linecap:butt;stroke-linejoin:miter;stroke-opacity:1"
       d="m 22.5,-90 225,0"
       id="path4482"
       inkscape:connector-curvature="0" />
    <path
       style="fill:none;stroke:#000000;stroke-width:1px;stroke-linecap:butt;stroke-linejoin:miter;stroke-opacity:1"
       d="m 270,-67.5 0,270"
       id="path4484"
       inkscape:connector-curvature="0" />
    <path
       style="fill:none;stroke:#000000;stroke-width:1.5;stroke-miterlimit:4;stroke-opacity:1;display:inline"
       d="M 0.04148906,-67.458663 C -0.00439636,-79.923579 9.9935954,-89.995451 22.458511,-90.041337"
       id="rect3220-5-4-64"
       inkscape:connector-curvature="0"
       sodipodi:nodetypes="cc" />
    <path
       style="fill:none;stroke:#000000;stroke-width:1.5;stroke-miterlimit:4;stroke-opacity:1;display:inline"
       d="M 247.41733,-89.917027 C 259.88224,-89.962927 269.95411,-79.964917 270,-67.5"
       id="rect3220-5-4-64-0"
       inkscape:connector-curvature="0"
       sodipodi:nodetypes="cc" />
  </g>
</svg>
